# xmcd CD database file
# Copyright (C) 1996 Ti Kan
#
# Track frame offsets:
# 	150
# 	14597
# 	32115
# 	45120
# 	57728
# 	81600
# 	92505
# 	104033
# 	118945
# 	129680
# 	143507
# 	163328
# 	187112
# 	198735
# 	217358
#
# Disc length: 3008 seconds
#
# Revision: 1
# Processed by: cddbd v1.4b41PL1 Copyright (c) Steve Scherf et al.
# Submitted via: DiscPlay 3.4.1
#
DISCID=f00bbe0f
DTITLE=The Dubliners, Tara, Roel McLoughlin, Dolores Keane e.o. - Irish Music F
DTITLE=estival CD2
DYEAR=1900
DGENRE=
TTITLE0=The boys of killibegs
TTITLE1=Fair haired child
TTITLE2=Home by Barna
TTITLE3=She moved through the fair
TTITLE4=Beauty of the North
TTITLE5=Mairi's wedding
TTITLE6=Idir Deighric 'Gus Breo
TTITLE7=Men of worth
TTITLE8=Le loop des Carpathes
TTITLE9=Mrs.McDermott's
TTITLE10=Galway bay
TTITLE11=O'Dowds
TTITLE12=Lizzie Lindsay
TTITLE13=The maid from the Parish of Penderyn
TTITLE14=The Barnyards of Delgaty
EXTD=
EXTT0=
EXTT1=Garden butterflies
EXTT2=
EXTT3=
EXTT4=Glen of Copsewood
EXTT5=
EXTT6=
EXTT7=
EXTT8=
EXTT9=Planxty George
EXTT10=
EXTT11=Master Crowleys
EXTT12=
EXTT13=
EXTT14=
PLAYORDER=
